<svg xmlns="http://www.w3.org/2000/svg" viewBox="0 0 1000 620" role="img" aria-labelledby="title desc"><title id="title">Low-frequency crossover from excess noise to the flat GR region</title><desc id="desc">Synthetic illustrative photodetector noise spectrum on logarithmic axes. A blue measured-like trace transitions from low-frequency excess noise to a flat generation-recombination region. Magenta fitted asymptotes intersect at crossover frequency f times.</desc><rect width="1000" height="620" fill="#ffffff"/><line x1="154.1" y1="36" x2="154.1" y2="500" stroke="#ece9ee" stroke-width="0.8" stroke-dasharray="2 4"/><line x1="209.9" y1="36" x2="209.9" y2="500" stroke="#ece9ee" stroke-width="0.8" stroke-dasharray="2 4"/><line x1="294.1" y1="36" x2="294.1" y2="500" stroke="#ece9ee" stroke-width="0.8" stroke-dasharray="2 4"/><line x1="349.9" y1="36" x2="349.9" y2="500" stroke="#ece9ee" stroke-width="0.8" stroke-dasharray="2 4"/><line x1="434.1" y1="36" x2="434.1" y2="500" stroke="#ece9ee" stroke-width="0.8" stroke-dasharray="2 4"/><line x1="489.9" y1="36" x2="489.9" y2="500" stroke="#ece9ee" stroke-width="0.8" stroke-dasharray="2 4"/><line x1="574.1" y1="36" x2="574.1" y2="500" stroke="#ece9ee" stroke-width="0.8" stroke-dasharray="2 4"/><line x1="629.9" y1="36" x2="629.9" y2="500" stroke="#ece9ee" stroke-width="0.8" stroke-dasharray="2 4"/><line x1="714.1" y1="36" x2="714.1" y2="500" stroke="#ece9ee" stroke-width="0.8" stroke-dasharray="2 4"/><line x1="769.9" y1="36" x2="769.9" y2="500" stroke="#ece9ee" stroke-width="0.8" stroke-dasharray="2 4"/><line x1="854.1" y1="36" x2="854.1" y2="500" stroke="#ece9ee" stroke-width="0.8" stroke-dasharray="2 4"/><line x1="909.9" y1="36" x2="909.9" y2="500" stroke="#ece9ee" stroke-width="0.8" stroke-dasharray="2 4"/><line x1="112.0" y1="36" x2="112.0" y2="500" stroke="#d8d3dc" stroke-width="1"/><line x1="252.0" y1="36" x2="252.0" y2="500" stroke="#d8d3dc" stroke-width="1"/><line x1="392.0" y1="36" x2="392.0" y2="500" stroke="#d8d3dc" stroke-width="1"/><line x1="532.0" y1="36" x2="532.0" y2="500" stroke="#d8d3dc" stroke-width="1"/><line x1="672.0" y1="36" x2="672.0" y2="500" stroke="#d8d3dc" stroke-width="1"/><line x1="812.0" y1="36" x2="812.0" y2="500" stroke="#d8d3dc" stroke-width="1"/><line x1="952.0" y1="36" x2="952.0" y2="500" stroke="#d8d3dc" stroke-width="1"/><line x1="112" y1="459.2" x2="952" y2="459.2" stroke="#ece9ee" stroke-width="0.8" stroke-dasharray="2 4"/><line x1="112" y1="348.5" x2="952" y2="348.5" stroke="#ece9ee" stroke-width="0.8" stroke-dasharray="2 4"/><line x1="112" y1="275.3" x2="952" y2="275.3" stroke="#ece9ee" stroke-width="0.8" stroke-dasharray="2 4"/><line x1="112" y1="164.6" x2="952" y2="164.6" stroke="#ece9ee" stroke-width="0.8" stroke-dasharray="2 4"/><line x1="112" y1="91.4" x2="952" y2="91.4" stroke="#ece9ee" stroke-width="0.8" stroke-dasharray="2 4"/><line x1="112" y1="403.8" x2="952" y2="403.8" stroke="#d8d3dc" stroke-width="1"/><line x1="112" y1="219.9" x2="952" y2="219.9" stroke="#d8d3dc" stroke-width="1"/><line x1="112" y1="36.0" x2="952" y2="36.0" stroke="#d8d3dc" stroke-width="1"/><line x1="112" y1="36" x2="112" y2="500" stroke="#2d2930" stroke-width="1.6"/><line x1="112" y1="500" x2="952" y2="500" stroke="#2d2930" stroke-width="1.6"/><line x1="112.0" y1="500" x2="112.0" y2="507" stroke="#2d2930" stroke-width="1.2"/><text x="112.0" y="532" text-anchor="middle" font-family="STIX Two Math, Cambria Math, Times New Roman, serif" font-size="17" fill="#2d2930">10⁻¹</text><line x1="252.0" y1="500" x2="252.0" y2="507" stroke="#2d2930" stroke-width="1.2"/><text x="252.0" y="532" text-anchor="middle" font-family="STIX Two Math, Cambria Math, Times New Roman, serif" font-size="17" fill="#2d2930">10⁰</text><line x1="392.0" y1="500" x2="392.0" y2="507" stroke="#2d2930" stroke-width="1.2"/><text x="392.0" y="532" text-anchor="middle" font-family="STIX Two Math, Cambria Math, Times New Roman, serif" font-size="17" fill="#2d2930">10¹</text><line x1="532.0" y1="500" x2="532.0" y2="507" stroke="#2d2930" stroke-width="1.2"/><text x="532.0" y="532" text-anchor="middle" font-family="STIX Two Math, Cambria Math, Times New Roman, serif" font-size="17" fill="#2d2930">10²</text><line x1="672.0" y1="500" x2="672.0" y2="507" stroke="#2d2930" stroke-width="1.2"/><text x="672.0" y="532" text-anchor="middle" font-family="STIX Two Math, Cambria Math, Times New Roman, serif" font-size="17" fill="#2d2930">10³</text><line x1="812.0" y1="500" x2="812.0" y2="507" stroke="#2d2930" stroke-width="1.2"/><text x="812.0" y="532" text-anchor="middle" font-family="STIX Two Math, Cambria Math, Times New Roman, serif" font-size="17" fill="#2d2930">10⁴</text><line x1="952.0" y1="500" x2="952.0" y2="507" stroke="#2d2930" stroke-width="1.2"/><text x="952.0" y="532" text-anchor="middle" font-family="STIX Two Math, Cambria Math, Times New Roman, serif" font-size="17" fill="#2d2930">10⁵</text><line x1="105" y1="403.8" x2="112" y2="403.8" stroke="#2d2930" stroke-width="1.2"/><text x="97" y="409.8" text-anchor="end" font-family="STIX Two Math, Cambria Math, Times New Roman, serif" font-size="17" fill="#2d2930">10¹</text><line x1="105" y1="219.9" x2="112" y2="219.9" stroke="#2d2930" stroke-width="1.2"/><text x="97" y="225.9" text-anchor="end" font-family="STIX Two Math, Cambria Math, Times New Roman, serif" font-size="17" fill="#2d2930">10²</text><line x1="105" y1="36.0" x2="112" y2="36.0" stroke="#2d2930" stroke-width="1.2"/><text x="97" y="42.0" text-anchor="end" font-family="STIX Two Math, Cambria Math, Times New Roman, serif" font-size="17" fill="#2d2930">10³</text><text x="532.0" y="578" text-anchor="middle" font-family="IBM Plex Sans, Helvetica Neue, Arial, sans-serif" font-size="20" font-weight="500" fill="#2d2930">Frequency, f (Hz)</text><text transform="rotate(-90 31 268)" x="31" y="268" text-anchor="middle" font-family="IBM Plex Sans, Helvetica Neue, Arial, sans-serif" font-size="19" font-weight="500" fill="#2d2930">NASD, eₙ(f) (nV/√Hz)</text><polyline points="112.0,74.0 114.3,76.2 116.7,79.2 119.0,80.3 121.4,80.4 123.7,79.9 126.0,82.2 128.4,83.8 130.7,89.7 133.1,96.6 135.4,98.6 137.7,98.5 140.1,102.7 142.4,104.7 144.8,107.6 147.1,108.7 149.4,106.3 151.8,97.6 154.1,96.5 156.5,98.3 158.8,98.1 161.1,104.3 163.5,101.8 165.8,107.1 168.2,103.7 170.5,105.4 172.8,110.9 175.2,114.7 177.5,120.4 179.9,120.7 182.2,121.2 184.5,115.2 186.9,121.1 189.2,132.4 191.6,128.4 193.9,129.2 196.2,133.7 198.6,130.1 200.9,135.7 203.3,137.3 205.6,140.8 207.9,138.9 210.3,139.3 212.6,146.8 215.0,144.7 217.3,152.3 219.6,149.1 222.0,149.4 224.3,147.3 226.7,151.0 229.0,153.3 231.3,154.6 233.7,152.1 236.0,148.1 238.4,153.5 240.7,152.5 243.0,154.5 245.4,158.1 247.7,162.9 250.1,156.5 252.4,161.7 254.7,170.9 257.1,173.1 259.4,170.9 261.7,171.8 264.1,174.9 266.4,177.2 268.8,177.3 271.1,180.9 273.4,186.3 275.8,185.1 278.1,186.1 280.5,190.2 282.8,192.2 285.1,192.7 287.5,193.1 289.8,197.5 292.2,198.4 294.5,194.1 296.8,196.0 299.2,198.7 301.5,199.2 303.9,207.2 306.2,208.4 308.5,210.1 310.9,211.4 313.2,213.1 315.6,219.8 317.9,223.4 320.2,220.9 322.6,223.5 324.9,222.3 327.3,223.0 329.6,224.7 331.9,223.7 334.3,228.1 336.6,227.4 339.0,227.5 341.3,238.0 343.6,236.4 346.0,238.2 348.3,236.7 350.7,240.2 353.0,241.5 355.3,244.2 357.7,247.1 360.0,246.9 362.4,247.1 364.7,249.3 367.0,255.0 369.4,259.0 371.7,258.0 374.1,254.8 376.4,261.7 378.7,262.7 381.1,264.4 383.4,271.1 385.8,275.0 388.1,272.1 390.4,275.2 392.8,278.5 395.1,280.5 397.5,280.1 399.8,280.5 402.1,280.1 404.5,280.6 406.8,282.0 409.2,284.7 411.5,283.5 413.8,289.3 416.2,286.6 418.5,286.6 420.9,290.7 423.2,290.1 425.5,298.2 427.9,298.8 430.2,299.2 432.6,300.7 434.9,300.7 437.2,305.9 439.6,309.2 441.9,312.5 444.3,312.0 446.6,310.7 448.9,312.7 451.3,311.9 453.6,312.2 456.0,315.5 458.3,318.7 460.6,321.1 463.0,317.0 465.3,321.3 467.7,321.4 470.0,323.5 472.3,324.4 474.7,327.5 477.0,328.7 479.4,328.7 481.7,331.6 484.0,329.7 486.4,333.0 488.7,333.2 491.1,333.9 493.4,335.8 495.7,336.6 498.1,337.0 500.4,336.4 502.8,337.5 505.1,339.8 507.4,339.4 509.8,344.5 512.1,344.1 514.5,348.8 516.8,350.8 519.1,353.9 521.5,351.6 523.8,356.7 526.2,354.9 528.5,358.5 530.8,358.6 533.2,360.2 535.5,360.2 537.8,361.4 540.2,363.7 542.5,364.1 544.9,365.2 547.2,368.1 549.5,369.2 551.9,368.8 554.2,370.4 556.6,370.6 558.9,371.7 561.2,370.9 563.6,369.7 565.9,368.3 568.3,371.9 570.6,375.0 572.9,373.3 575.3,375.1 577.6,373.9 580.0,375.2 582.3,375.7 584.6,376.8 587.0,379.7 589.3,377.9 591.7,378.4 594.0,379.9 596.3,378.8 598.7,380.1 601.0,383.0 603.4,384.1 605.7,385.1 608.0,384.0 610.4,384.9 612.7,384.6 615.1,387.4 617.4,387.0 619.7,387.7 622.1,389.0 624.4,390.4 626.8,391.7 629.1,392.6 631.4,391.2 633.8,394.4 636.1,392.6 638.5,393.3 640.8,393.8 643.1,392.9 645.5,392.2 647.8,391.5 650.2,394.0 652.5,394.0 654.8,393.1 657.2,396.9 659.5,396.1 661.9,395.2 664.2,394.1 666.5,394.7 668.9,397.3 671.2,397.3 673.6,397.0 675.9,399.4 678.2,399.8 680.6,398.3 682.9,400.9 685.3,399.3 687.6,400.0 689.9,399.7 692.3,400.0 694.6,401.1 697.0,400.2 699.3,399.6 701.6,398.4 704.0,399.7 706.3,399.4 708.7,399.8 711.0,400.4 713.3,401.3 715.7,399.7 718.0,400.0 720.4,401.8 722.7,404.0 725.0,401.9 727.4,402.7 729.7,402.3 732.1,404.5 734.4,403.9 736.7,403.3 739.1,403.9 741.4,402.6 743.8,400.5 746.1,400.5 748.4,399.8 750.8,401.8 753.1,400.3 755.5,400.3 757.8,400.6 760.1,399.8 762.5,399.7 764.8,402.0 767.2,400.3 769.5,402.3 771.8,401.3 774.2,402.0 776.5,402.0 778.9,402.0 781.2,403.0 783.5,402.6 785.9,405.1 788.2,404.8 790.6,402.9 792.9,403.1 795.2,403.6 797.6,404.4 799.9,402.7 802.3,405.2 804.6,403.5 806.9,403.0 809.3,403.0 811.6,405.6 813.9,404.4 816.3,403.1 818.6,404.1 821.0,404.3 823.3,404.7 825.6,405.3 828.0,404.2 830.3,404.5 832.7,403.6 835.0,404.5 837.3,402.5 839.7,404.1 842.0,402.9 844.4,402.4 846.7,401.4 849.0,400.9 851.4,399.3 853.7,400.6 856.1,400.5 858.4,401.3 860.7,401.7 863.1,402.2 865.4,402.8 867.8,403.6 870.1,404.4 872.4,402.7 874.8,405.5 877.1,405.8 879.5,404.5 881.8,405.7 884.1,404.5 886.5,404.8 888.8,406.1 891.2,405.7 893.5,405.1 895.8,404.8 898.2,404.8 900.5,404.0 902.9,405.6 905.2,402.2 907.5,402.9 909.9,403.2 912.2,403.8 914.6,403.6 916.9,401.4 919.2,402.9 921.6,401.7 923.9,402.2 926.3,401.1 928.6,402.1 930.9,401.3 933.3,400.6 935.6,402.0 938.0,400.7 940.3,401.4 942.6,403.3 945.0,404.6 947.3,405.0 949.7,405.0 952.0,403.6" fill="none" stroke="#1736d1" stroke-width="1.6" stroke-linejoin="round" stroke-linecap="round"/><line x1="112.0" y1="69.9" x2="574.1" y2="403.8" stroke="#ff00ff" stroke-width="3" stroke-linecap="round"/><line x1="574.1" y1="403.8" x2="952" y2="403.8" stroke="#ff00ff" stroke-width="3" stroke-linecap="round"/><line x1="574.1" y1="403.8" x2="574.1" y2="500" stroke="#ff00ff" stroke-width="1.7" stroke-dasharray="6 5"/><circle cx="574.1" cy="403.8" r="5" fill="#ff00ff"/><text x="188.2" y="119.9" font-family="IBM Plex Sans, Helvetica Neue, Arial, sans-serif" font-size="16" font-weight="600" fill="#ff00ff"><tspan x="188.2" dy="0">low-frequency</tspan><tspan x="188.2" dy="20">excess-noise fit</tspan></text><text x="734.6" y="374.2" font-family="IBM Plex Sans, Helvetica Neue, Arial, sans-serif" font-size="16" font-weight="600" fill="#ff00ff">flat GR fit</text><text x="930.3" y="398.4" text-anchor="end" font-family="STIX Two Math, Cambria Math, Times New Roman, serif" font-size="17" fill="#ff00ff">eₙ,GR</text><text x="574.1" y="488" text-anchor="middle" font-family="STIX Two Math, Cambria Math, Times New Roman, serif" font-size="19" fill="#ff00ff">f<tspan baseline-shift="sub" font-size="12">×</tspan></text></svg>