<svg xmlns="http://www.w3.org/2000/svg" viewBox="0 0 1000 650" role="img" aria-labelledby="title desc">
<title id="title">Standalone 1/f Noise</title><desc id="desc">Illustrative one-over-f noise ASD with simulated measurement scatter and ideal power-law trend.</desc>
<rect width="1000" height="650" fill="#fff"/>
<style>text{font-family:Arial,Helvetica,sans-serif;fill:#202124}.tick{font-size:18px;fill:#5f6368}.axis{font-size:21px}.title{font-size:28px;font-weight:700}.legend{font-size:17px}</style>
<text class="title" x="500" y="38" text-anchor="middle">Standalone 1/f Noise</text>
<rect x="95" y="70" width="875" height="505" fill="#fff" stroke="#222" stroke-width="1.5"/><line x1="95.0" y1="70" x2="95.0" y2="575" stroke="#d7dbe2" stroke-width="1" stroke-dasharray="5 5"/><text class="tick" x="95.0" y="604" text-anchor="middle">10<tspan baseline-shift="super" font-size="12">2</tspan></text><line x1="147.7" y1="70" x2="147.7" y2="575" stroke="#eceef2" stroke-width="0.8"/><line x1="178.5" y1="70" x2="178.5" y2="575" stroke="#eceef2" stroke-width="0.8"/><line x1="200.4" y1="70" x2="200.4" y2="575" stroke="#eceef2" stroke-width="0.8"/><line x1="217.3" y1="70" x2="217.3" y2="575" stroke="#eceef2" stroke-width="0.8"/><line x1="231.2" y1="70" x2="231.2" y2="575" stroke="#eceef2" stroke-width="0.8"/><line x1="242.9" y1="70" x2="242.9" y2="575" stroke="#eceef2" stroke-width="0.8"/><line x1="253.0" y1="70" x2="253.0" y2="575" stroke="#eceef2" stroke-width="0.8"/><line x1="262.0" y1="70" x2="262.0" y2="575" stroke="#eceef2" stroke-width="0.8"/><line x1="270.0" y1="70" x2="270.0" y2="575" stroke="#d7dbe2" stroke-width="1" stroke-dasharray="5 5"/><text class="tick" x="270.0" y="604" text-anchor="middle">10<tspan baseline-shift="super" font-size="12">3</tspan></text><line x1="322.7" y1="70" x2="322.7" y2="575" stroke="#eceef2" stroke-width="0.8"/><line x1="353.5" y1="70" x2="353.5" y2="575" stroke="#eceef2" stroke-width="0.8"/><line x1="375.4" y1="70" x2="375.4" y2="575" stroke="#eceef2" stroke-width="0.8"/><line x1="392.3" y1="70" x2="392.3" y2="575" stroke="#eceef2" stroke-width="0.8"/><line x1="406.2" y1="70" x2="406.2" y2="575" stroke="#eceef2" stroke-width="0.8"/><line x1="417.9" y1="70" x2="417.9" y2="575" stroke="#eceef2" stroke-width="0.8"/><line x1="428.0" y1="70" x2="428.0" y2="575" stroke="#eceef2" stroke-width="0.8"/><line x1="437.0" y1="70" x2="437.0" y2="575" stroke="#eceef2" stroke-width="0.8"/><line x1="445.0" y1="70" x2="445.0" y2="575" stroke="#d7dbe2" stroke-width="1" stroke-dasharray="5 5"/><text class="tick" x="445.0" y="604" text-anchor="middle">10<tspan baseline-shift="super" font-size="12">4</tspan></text><line x1="497.7" y1="70" x2="497.7" y2="575" stroke="#eceef2" stroke-width="0.8"/><line x1="528.5" y1="70" x2="528.5" y2="575" stroke="#eceef2" stroke-width="0.8"/><line x1="550.4" y1="70" x2="550.4" y2="575" stroke="#eceef2" stroke-width="0.8"/><line x1="567.3" y1="70" x2="567.3" y2="575" stroke="#eceef2" stroke-width="0.8"/><line x1="581.2" y1="70" x2="581.2" y2="575" stroke="#eceef2" stroke-width="0.8"/><line x1="592.9" y1="70" x2="592.9" y2="575" stroke="#eceef2" stroke-width="0.8"/><line x1="603.0" y1="70" x2="603.0" y2="575" stroke="#eceef2" stroke-width="0.8"/><line x1="612.0" y1="70" x2="612.0" y2="575" stroke="#eceef2" stroke-width="0.8"/><line x1="620.0" y1="70" x2="620.0" y2="575" stroke="#d7dbe2" stroke-width="1" stroke-dasharray="5 5"/><text class="tick" x="620.0" y="604" text-anchor="middle">10<tspan baseline-shift="super" font-size="12">5</tspan></text><line x1="672.7" y1="70" x2="672.7" y2="575" stroke="#eceef2" stroke-width="0.8"/><line x1="703.5" y1="70" x2="703.5" y2="575" stroke="#eceef2" stroke-width="0.8"/><line x1="725.4" y1="70" x2="725.4" y2="575" stroke="#eceef2" stroke-width="0.8"/><line x1="742.3" y1="70" x2="742.3" y2="575" stroke="#eceef2" stroke-width="0.8"/><line x1="756.2" y1="70" x2="756.2" y2="575" stroke="#eceef2" stroke-width="0.8"/><line x1="767.9" y1="70" x2="767.9" y2="575" stroke="#eceef2" stroke-width="0.8"/><line x1="778.0" y1="70" x2="778.0" y2="575" stroke="#eceef2" stroke-width="0.8"/><line x1="787.0" y1="70" x2="787.0" y2="575" stroke="#eceef2" stroke-width="0.8"/><line x1="795.0" y1="70" x2="795.0" y2="575" stroke="#d7dbe2" stroke-width="1" stroke-dasharray="5 5"/><text class="tick" x="795.0" y="604" text-anchor="middle">10<tspan baseline-shift="super" font-size="12">6</tspan></text><line x1="847.7" y1="70" x2="847.7" y2="575" stroke="#eceef2" stroke-width="0.8"/><line x1="878.5" y1="70" x2="878.5" y2="575" stroke="#eceef2" stroke-width="0.8"/><line x1="900.4" y1="70" x2="900.4" y2="575" stroke="#eceef2" stroke-width="0.8"/><line x1="917.3" y1="70" x2="917.3" y2="575" stroke="#eceef2" stroke-width="0.8"/><line x1="931.2" y1="70" x2="931.2" y2="575" stroke="#eceef2" stroke-width="0.8"/><line x1="942.9" y1="70" x2="942.9" y2="575" stroke="#eceef2" stroke-width="0.8"/><line x1="953.0" y1="70" x2="953.0" y2="575" stroke="#eceef2" stroke-width="0.8"/><line x1="962.0" y1="70" x2="962.0" y2="575" stroke="#eceef2" stroke-width="0.8"/><line x1="970.0" y1="70" x2="970.0" y2="575" stroke="#d7dbe2" stroke-width="1" stroke-dasharray="5 5"/><text class="tick" x="970.0" y="604" text-anchor="middle">10<tspan baseline-shift="super" font-size="12">7</tspan></text><line x1="95" y1="539.7" x2="970" y2="539.7" stroke="#d7dbe2" stroke-width="1" stroke-dasharray="5 5"/><text class="tick" x="82" y="545.7" text-anchor="end">10⁻¹¹</text><line x1="95" y1="451.1" x2="970" y2="451.1" stroke="#d7dbe2" stroke-width="1" stroke-dasharray="5 5"/><text class="tick" x="82" y="457.1" text-anchor="end">10⁻¹⁰</text><line x1="95" y1="362.5" x2="970" y2="362.5" stroke="#d7dbe2" stroke-width="1" stroke-dasharray="5 5"/><text class="tick" x="82" y="368.5" text-anchor="end">10⁻⁹</text><line x1="95" y1="273.9" x2="970" y2="273.9" stroke="#d7dbe2" stroke-width="1" stroke-dasharray="5 5"/><text class="tick" x="82" y="279.9" text-anchor="end">10⁻⁸</text><line x1="95" y1="185.3" x2="970" y2="185.3" stroke="#d7dbe2" stroke-width="1" stroke-dasharray="5 5"/><text class="tick" x="82" y="191.3" text-anchor="end">10⁻⁷</text><line x1="95" y1="96.7" x2="970" y2="96.7" stroke="#d7dbe2" stroke-width="1" stroke-dasharray="5 5"/><text class="tick" x="82" y="102.7" text-anchor="end">10⁻⁶</text><polyline points="95.0,118.1 100.5,120.5 106.0,123.7 111.5,127.7 117.0,129.5 122.5,132.1 128.0,134.5 133.5,135.9 139.0,138.7 144.5,141.8 150.0,145.2 155.5,149.4 161.0,153.4 166.5,156.2 172.0,158.7 177.5,161.1 183.1,164.1 188.6,167.6 194.1,171.1 199.6,172.9 205.1,173.2 210.6,175.4 216.1,178.8 221.6,184.6 227.1,192.4 232.6,196.2 238.1,197.3 243.6,195.8 249.1,193.7 254.6,194.1 260.1,194.8 265.6,198.1 271.1,199.6 276.6,200.9 282.1,206.0 287.6,210.5 293.1,216.6 298.6,223.1 304.1,226.3 309.6,229.3 315.1,232.7 320.6,234.8 326.1,237.0 331.6,238.9 337.1,239.8 342.6,241.1 348.1,242.3 353.6,243.3 359.2,245.0 364.7,247.0 370.2,250.5 375.7,253.9 381.2,257.2 386.7,260.5 392.2,262.4 397.7,266.3 403.2,269.5 408.7,273.3 414.2,277.4 419.7,279.7 425.2,283.1 430.7,285.8 436.2,289.3 441.7,292.0 447.2,292.9 452.7,295.2 458.2,296.5 463.7,297.9 469.2,301.4 474.7,303.0 480.2,304.7 485.7,307.9 491.2,309.4 496.7,311.2 502.2,315.0 507.7,318.3 513.2,323.4 518.7,328.0 524.2,329.9 529.7,332.6 535.3,334.9 540.8,337.9 546.3,341.7 551.8,343.7 557.3,344.4 562.8,345.5 568.3,347.0 573.8,348.2 579.3,350.1 584.8,352.0 590.3,354.3 595.8,357.5 601.3,362.7 606.8,367.6 612.3,371.7 617.8,377.7 623.3,380.1 628.8,382.8 634.3,385.2 639.8,384.8 645.3,386.1 650.8,385.7 656.3,386.2 661.8,388.1 667.3,391.9 672.8,396.6 678.3,401.3 683.8,405.3 689.3,406.6 694.8,409.7 700.3,411.7 705.8,413.4 711.4,416.3 716.9,418.2 722.4,421.1 727.9,425.2 733.4,428.8 738.9,430.4 744.4,433.2 749.9,436.2 755.4,439.7 760.9,444.1 766.4,446.7 771.9,447.5 777.4,448.2 782.9,452.0 788.4,455.9 793.9,459.9 799.4,464.0 804.9,465.4 810.4,466.6 815.9,468.3 821.4,470.9 826.9,473.8 832.4,478.1 837.9,482.4 843.4,486.0 848.9,490.1 854.4,491.7 859.9,493.4 865.4,494.2 870.9,493.3 876.4,495.4 881.9,497.6 887.5,500.2 893.0,504.1 898.5,507.3 904.0,509.5 909.5,512.8 915.0,516.9 920.5,520.3 926.0,525.3 931.5,528.0 937.0,529.8 942.5,531.1 948.0,532.7 953.5,537.1 959.0,540.6 964.5,544.9 970.0,546.4" fill="none" stroke="#1736d1" stroke-width="3" stroke-linejoin="round" stroke-linecap="round"/><polyline points="95.0,120.4 100.5,123.0 106.0,125.7 111.5,128.3 117.0,131.0 122.5,133.6 128.0,136.3 133.5,138.9 139.0,141.6 144.5,144.2 150.0,146.9 155.5,149.5 161.0,152.1 166.5,154.8 172.0,157.4 177.5,160.1 183.1,162.7 188.6,165.4 194.1,168.0 199.6,170.7 205.1,173.3 210.6,176.0 216.1,178.6 221.6,181.3 227.1,183.9 232.6,186.6 238.1,189.2 243.6,191.9 249.1,194.5 254.6,197.2 260.1,199.8 265.6,202.4 271.1,205.1 276.6,207.7 282.1,210.4 287.6,213.0 293.1,215.7 298.6,218.3 304.1,221.0 309.6,223.6 315.1,226.3 320.6,228.9 326.1,231.6 331.6,234.2 337.1,236.9 342.6,239.5 348.1,242.2 353.6,244.8 359.2,247.4 364.7,250.1 370.2,252.7 375.7,255.4 381.2,258.0 386.7,260.7 392.2,263.3 397.7,266.0 403.2,268.6 408.7,271.3 414.2,273.9 419.7,276.6 425.2,279.2 430.7,281.9 436.2,284.5 441.7,287.2 447.2,289.8 452.7,292.5 458.2,295.1 463.7,297.7 469.2,300.4 474.7,303.0 480.2,305.7 485.7,308.3 491.2,311.0 496.7,313.6 502.2,316.3 507.7,318.9 513.2,321.6 518.7,324.2 524.2,326.9 529.7,329.5 535.3,332.2 540.8,334.8 546.3,337.5 551.8,340.1 557.3,342.7 562.8,345.4 568.3,348.0 573.8,350.7 579.3,353.3 584.8,356.0 590.3,358.6 595.8,361.3 601.3,363.9 606.8,366.6 612.3,369.2 617.8,371.9 623.3,374.5 628.8,377.2 634.3,379.8 639.8,382.5 645.3,385.1 650.8,387.8 656.3,390.4 661.8,393.0 667.3,395.7 672.8,398.3 678.3,401.0 683.8,403.6 689.3,406.3 694.8,408.9 700.3,411.6 705.8,414.2 711.4,416.9 716.9,419.5 722.4,422.2 727.9,424.8 733.4,427.5 738.9,430.1 744.4,432.8 749.9,435.4 755.4,438.1 760.9,440.7 766.4,443.3 771.9,446.0 777.4,448.6 782.9,451.3 788.4,453.9 793.9,456.6 799.4,459.2 804.9,461.9 810.4,464.5 815.9,467.2 821.4,469.8 826.9,472.5 832.4,475.1 837.9,477.8 843.4,480.4 848.9,483.1 854.4,485.7 859.9,488.3 865.4,491.0 870.9,493.6 876.4,496.3 881.9,498.9 887.5,501.6 893.0,504.2 898.5,506.9 904.0,509.5 909.5,512.2 915.0,514.8 920.5,517.5 926.0,520.1 931.5,522.8 937.0,525.4 942.5,528.1 948.0,530.7 953.5,533.4 959.0,536.0 964.5,538.6 970.0,541.3" fill="none" stroke="#e87516" stroke-width="3" stroke-dasharray="10 7" stroke-linejoin="round"/><rect x="610" y="86" width="340" height="78" rx="5" fill="#fff" stroke="#c8ccd2"/><line x1="628" y1="113" x2="680" y2="113" stroke="#1736d1" stroke-width="3"/><text class="legend" x="692" y="119">Simulated measured-like trace</text><line x1="628" y1="142" x2="680" y2="142" stroke="#e87516" stroke-width="3" stroke-dasharray="10 7"/><text class="legend" x="692" y="148">Ideal power-law trend</text><text class="axis" x="532" y="636" text-anchor="middle">Frequency (Hz)</text><text class="axis" x="24" y="325" text-anchor="middle" transform="rotate(-90 24 325)">Noise amplitude spectral density (V/√Hz)</text></svg>